PathFileType	4	(X/Y/Z)	C:/Users/opensim2020/Desktop/walking_exp_matlab/subject01_walking07_straight_01.trc	
DataRate	CameraRate	NumFrames	NumMarkers	Units	OrigDataRate	OrigDataStartFrame	OrigNumFrames	
100.00	100.00	6	43	mm	100.00	866	282	
Frame#	Time	LFHD			RFHD			LBHD			RBHD			C7			T10			CLAV			STRN			RBAK			LSHO			LUPA			LELB			LFRM			LWRA			LWRB			LFIN			RSHO			RUPA			RELB			RFRM			RWRA			RWRB			RFIN			LASI			RASI			LPSI			RPSI			LTHI			LKNE			LTIB			LANK			LHEE			LTOE			RTHI			RKNE			RTIB			RANK			RHEE			RTOE			*39			*40			*41			*42			
		X1	Y1	Z1	X2	Y2	Z2	X3	Y3	Z3	X4	Y4	Z4	X5	Y5	Z5	X6	Y6	Z6	X7	Y7	Z7	X8	Y8	Z8	X9	Y9	Z9	X10	Y10	Z10	X11	Y11	Z11	X12	Y12	Z12	X13	Y13	Z13	X14	Y14	Z14	X15	Y15	Z15	X16	Y16	Z16	X17	Y17	Z17	X18	Y18	Z18	X19	Y19	Z19	X20	Y20	Z20	X21	Y21	Z21	X22	Y22	Z22	X23	Y23	Z23	X24	Y24	Z24	X25	Y25	Z25	X26	Y26	Z26	X27	Y27	Z27	X28	Y28	Z28	X29	Y29	Z29	X30	Y30	Z30	X31	Y31	Z31	X32	Y32	Z32	X33	Y33	Z33	X34	Y34	Z34	X35	Y35	Z35	X36	Y36	Z36	X37	Y37	Z37	X38	Y38	Z38	X39	Y39	Z39	X40	Y40	Z40	X41	Y41	Z41	X42	Y42	Z42	X43	Y43	Z43	

212	2.110	1385.14026	364.59567	1656.63525	1491.02161	407.84567	1664.84424	1426.44434	251.35989	1621.01709	1538.59753	293.98074	1628.94128	1468.22217	212.88242	1425.24744	1482.05823	177.51239	1131.55591	1454.56860	354.30106	1355.09937	1450.55042	396.57108	1200.69995	1554.12646	163.90248	1232.97607	1299.42383	280.59451	1383.05713	1227.43018	221.31906	1199.29065	1239.98413	183.94437	1055.69934	1216.61780	191.25420	942.71320	1232.42383	239.13043	809.91901	1213.15759	182.93916	820.41937	1207.23291	207.26289	738.06592	1611.47241	307.66370	1388.91321	1723.46228	269.85376	1190.67542	1729.93884	282.49969	1063.89294	1752.72705	346.13071	957.52655	1721.77979	456.28345	873.69647	1763.36218	418.49411	859.09668	1756.33960	478.92770	799.68140	1365.31323	347.49442	926.31000	1583.70825	357.72510	925.47180	1421.40698	163.66367	935.78217	1565.14478	171.13136	945.79071	1289.70386	380.06909	605.78864	1312.49597	417.82260	479.90106	1298.71143	432.82510	296.83585	1341.17993	499.12997	81.52621	1398.46008	471.60529	38.79496	1327.97607	646.40765	89.13373	1637.91833	247.85489	601.44873	1612.38672	219.59241	442.58862	1621.11963	121.10209	294.70428	1577.30005	35.52638	105.50883	1533.27332	-27.27669	84.45894	1560.51062	159.13264	34.72872	1470.37939	392.20401	1698.65051	-3102.03613	1973.19885	1023.41095	-3140.70728	2012.61401	1022.09088			 
213	2.120	1382.39185	374.64111	1655.64478	1488.29565	417.92166	1663.88037	1423.73328	261.27881	1620.25537	1535.84521	303.97501	1628.16357	1465.64587	222.65610	1424.36572	1479.91748	187.58174	1130.63354	1452.02539	364.05560	1354.24023	1448.26367	406.47229	1199.85181	1551.72913	173.81770	1232.04163	1296.90234	290.37537	1381.89575	1225.13733	230.92978	1198.00781	1238.03894	193.21033	1054.68018	1214.80420	200.04417	941.56641	1230.66748	247.24658	808.46497	1211.58105	191.07903	819.34760	1205.87500	214.80472	736.61786	1608.91162	317.26877	1388.28223	1721.06250	279.65121	1190.16125	1727.85657	292.43741	1063.44226	1750.69226	356.36050	957.22833	1719.76331	466.73248	873.66907	1761.36304	428.96121	859.02435	1754.45959	489.65555	799.89417	1363.79285	358.00977	925.28723	1582.16711	367.98404	924.64929	1419.34216	173.90384	934.98639	1563.07251	181.40210	944.98474	1289.44019	391.90750	605.63202	1312.16125	428.00342	479.00601	1298.91418	442.26782	295.30725	1341.81567	508.49036	80.09635	1399.30457	480.88934	37.66594	1329.65356	656.10217	87.44934	1636.86987	257.28033	601.05682	1611.81873	228.15608	442.03772	1621.02539	126.96542	295.90515	1578.18420	37.55606	108.36938	1534.18970	-25.59092	88.45776	1560.52087	159.38583	34.63018	1467.43921	402.12262	1697.57654	-3102.05273	1973.02148	1023.52435	-3140.68018	2012.51746	1021.98456			 
214	2.130	1379.58008	384.60248	1654.64148	1485.46375	427.86703	1662.91370	1420.86340	271.24503	1619.42712	1533.07300	313.88095	1627.37402	1462.95105	232.41069	1423.42505	1477.79932	197.59862	1129.84290	1449.47119	373.94757	1353.42358	1445.95227	416.51605	1199.07275	1549.26868	183.76370	1231.06042	1294.21570	300.12967	1380.67883	1222.79724	240.60614	1196.76123	1235.90894	202.72725	1053.53735	1212.84375	209.20369	940.36383	1229.42712	255.72345	807.17413	1209.83032	199.69666	818.16034	1204.53503	223.17477	735.50488	1606.26990	326.96082	1387.61475	1718.47766	289.25977	1189.63196	1725.69238	302.28250	1063.00464	1748.58557	366.35913	956.90320	1717.67163	476.90036	873.53735	1759.27686	439.14755	858.81311	1752.48071	499.99603	799.85529	1361.98047	368.64734	924.41992	1580.41345	378.36197	923.79199	1417.34875	184.26656	934.21643	1561.11255	191.81683	944.31757	1289.56177	404.35138	605.44055	1312.12891	438.76447	478.26181	1299.34753	451.11911	293.74026	1343.05432	515.50452	78.24978	1400.31763	487.21570	36.35890	1331.44788	663.06079	84.56676	1635.58374	266.96786	600.49701	1611.15503	237.26268	441.34302	1621.10474	133.18813	297.33380	1578.68591	39.78281	111.15425	1534.97156	-23.84038	92.53374	1560.27124	159.47214	34.36837	1464.58154	412.14886	1696.59973	-3101.95215	1973.23657	1023.48779	-3140.57739	2012.48389	1021.97430			 
215	2.140	1376.71729	394.47360	1653.65930	1482.50220	437.60098	1661.84058	1417.99353	281.13202	1618.55444	1530.18396	323.68600	1626.53650	1460.16785	242.23305	1422.36987	1475.54504	207.94904	1128.79749	1446.76196	383.79816	1352.55066	1443.55359	426.69736	1198.27844	1546.75940	193.86057	1230.03064	1291.50610	309.95892	1379.45935	1220.34131	250.44836	1195.45618	1233.58008	212.30496	1052.25073	1210.81091	218.61392	939.15179	1227.85559	264.75339	805.79596	1207.98914	208.83954	816.89972	1203.05627	232.03845	734.00232	1603.49963	336.66235	1386.88220	1715.85913	298.70663	1189.15173	1723.36621	311.94910	1062.58875	1746.42358	376.17484	956.57526	1715.73828	486.88156	873.45740	1757.24292	449.02090	858.55939	1750.48108	509.96387	799.69348	1360.06995	379.46393	923.62750	1578.57031	388.97589	922.91962	1415.39502	194.89133	933.32849	1559.04187	202.42831	943.39624	1289.99512	417.44412	605.33862	1312.46204	449.97903	477.58929	1299.83521	459.38693	291.84641	1344.07471	520.62091	75.76993	1400.77551	490.75620	36.04838	1333.23657	667.99738	80.45074	1634.19312	277.15329	599.75403	1610.52722	246.93654	440.46295	1620.87903	139.80820	298.41690	1579.29077	42.41735	114.24276	1535.97742	-21.83353	97.09519	1560.49084	159.86435	34.41529	1461.67603	422.04382	1695.64978	-3101.92163	1973.11536	1023.79041	-3140.62280	2012.48914	1022.01379			 
216	2.150	1373.89453	404.34106	1652.67603	1479.70520	447.36282	1660.86340	1415.03967	290.87613	1617.63342	1527.26306	333.37622	1625.59717	1457.25378	252.01627	1421.25452	1473.13025	218.75555	1127.41724	1443.99390	393.78586	1351.69360	1441.01917	437.01056	1197.49805	1544.16626	203.99020	1228.98669	1288.65454	319.75778	1378.21558	1217.81580	260.28854	1194.03174	1231.17126	222.18188	1050.99121	1208.64050	228.45427	937.76508	1226.08643	274.28793	804.43115	1206.08459	218.44603	815.58923	1201.54358	241.51370	732.50562	1600.61475	346.39029	1386.13184	1713.05688	308.05829	1188.62720	1720.99316	321.48611	1062.15161	1744.20544	385.70810	956.15594	1713.55603	496.50623	873.02179	1755.20264	458.66492	858.21173	1748.45654	519.66620	799.38135	1357.97766	390.51630	922.80609	1576.62244	399.74710	922.01111	1413.40137	205.57626	932.37482	1557.01440	213.25438	942.49530	1290.87634	430.72638	605.10718	1313.05676	461.49521	476.92667	1300.38550	467.26105	289.71585	1345.53503	523.53168	72.85181	1401.52148	492.47983	34.80939	1335.15808	671.27155	74.57430	1632.69373	287.88495	598.89594	1609.73059	257.14938	439.28207	1620.69104	146.93919	299.64951	1579.84741	45.26944	117.39439	1536.54138	-19.14643	101.96297	1560.65967	160.28189	34.40280	1458.81250	431.86981	1694.67505	-3102.01660	1973.12085	1023.38556	-3140.69263	2012.43018	1021.96490			 
217	2.160	1370.94714	414.08368	1651.77234	1476.93982	457.07791	1659.93591	1411.99768	300.59763	1616.62878	1524.31030	342.99835	1624.60168	1454.12610	261.72144	1420.08472	1470.60339	229.37082	1126.13367	1441.05408	403.73578	1350.74390	1438.42688	447.42908	1196.80615	1541.65186	212.60170	1228.23120	1285.66248	329.72263	1377.00171	1215.16602	270.26508	1192.69092	1228.53003	232.33049	1049.56763	1206.40674	238.60776	936.41956	1223.91003	284.52798	803.15057	1204.11426	228.51384	814.20923	1199.59253	251.46719	731.07349	1597.73572	356.23499	1385.55188	1710.20374	317.45297	1188.13232	1718.53467	330.81021	1061.64429	1741.94043	395.12448	955.67804	1711.46545	505.91992	872.51215	1753.25635	468.04739	857.82092	1746.39905	529.10699	798.85406	1355.91333	401.52512	922.04193	1574.59021	410.67957	921.12170	1411.28650	216.33409	931.41217	1555.23169	224.20442	941.86078	1292.47754	443.57092	604.60883	1313.23645	472.94168	476.07596	1301.54016	474.63098	287.60846	1347.21814	525.83459	71.65952	1402.88123	493.71091	35.77222	1336.35095	674.30695	66.11137	1631.11389	299.24036	597.80072	1609.06665	268.35574	438.10242	1619.71362	154.33394	300.37991	1580.46838	48.46715	121.03200	1536.99402	-16.21679	107.11583	1560.83838	160.74928	34.38667	1455.98682	441.56671	1693.70483	-3101.90747	1973.14307	1023.32751	-3140.68555	2012.50623	1021.96686			 
